<svg width="80" height="32" viewBox="0 0 80 32" fill="none" xmlns="http://www.w3.org/2000/svg">
<rect x="0.897461" y="8.57141" width="78" height="22" rx="6" fill="url(#paint0_linear_12_131)"/>
<rect x="2.05127" y="8.57141" width="12.7179" height="8.40659" fill="#E8D2A9"/>
<rect x="65" y="9" width="13" height="8" fill="url(#paint1_linear_12_131)"/>
<rect x="1.84613" y="5" width="43" height="4" fill="url(#paint2_linear_12_131)"/>
<rect x="7" y="2" width="37" height="3" fill="url(#paint3_linear_12_131)"/>
<rect x="46" y="7" width="30" height="2" fill="#4F4B40"/>
<rect x="4" y="30" width="72" height="2" fill="#4F4B40"/>
<rect y="4" width="2" height="24" fill="#4F4B40"/>
<rect x="78" y="11" width="2" height="17" fill="#4F4B40"/>
<rect x="44" y="4" width="2" height="5" fill="#4F4B40"/>
<rect x="2" y="28" width="2" height="2" fill="#4F4B40"/>
<rect x="76" y="28" width="2" height="2" fill="#4F4B40"/>
<rect x="76" y="9" width="2" height="2" fill="#4F4B40"/>
<rect y="4" width="7" height="2" fill="#4F4B40"/>
<rect x="9" width="33" height="2" fill="#4F4B40"/>
<rect x="42" y="2" width="2" height="2" fill="#4F4B40"/>
<rect x="7" y="2" width="2" height="2" fill="#4F4B40"/>
<defs>
<linearGradient id="paint0_linear_12_131" x1="0.897461" y1="19.5714" x2="78.8975" y2="19.5714" gradientUnits="userSpaceOnUse">
<stop offset="0.292876" stop-color="#E8D2A9"/>
<stop offset="1" stop-color="#DABD89"/>
</linearGradient>
<linearGradient id="paint1_linear_12_131" x1="65" y1="13" x2="78" y2="13" gradientUnits="userSpaceOnUse">
<stop stop-color="#DEC292"/>
<stop offset="1" stop-color="#DCBF8D"/>
</linearGradient>
<linearGradient id="paint2_linear_12_131" x1="1.84613" y1="7" x2="44.8461" y2="7" gradientUnits="userSpaceOnUse">
<stop stop-color="#DABD89"/>
<stop offset="1" stop-color="#CAB081"/>
</linearGradient>
<linearGradient id="paint3_linear_12_131" x1="7" y1="3.5" x2="44" y2="3.5" gradientUnits="userSpaceOnUse">
<stop stop-color="#DABD89"/>
<stop offset="1" stop-color="#CAB081"/>
</linearGradient>
</defs>
</svg>
