<?xml version="1.0" encoding="UTF-8"?>
<svg xmlns="http://www.w3.org/2000/svg" version="1.1" xmlns:xlink="http://www.w3.org/1999/xlink" viewBox="0 0 80 30">
  <defs>
    <style>
      .cls-1 {
        fill: #4f4b40;
      }

      .cls-2 {
        fill: url(#Degradado_sin_nombre_4);
      }

      .cls-3 {
        fill: url(#Degradado_sin_nombre_2);
      }

      .cls-4 {
        fill: #e8d2a9;
      }

      .cls-5 {
        fill: url(#Degradado_sin_nombre_3);
      }

      .cls-6 {
        fill: url(#Degradado_sin_nombre);
      }
    </style>
    <linearGradient id="Degradado_sin_nombre" data-name="Degradado sin nombre" x1="1" y1="17.1" x2="78.8" y2="17.1" gradientTransform="translate(0 36) scale(1 -1)" gradientUnits="userSpaceOnUse">
      <stop offset=".3" stop-color="#e8d2a9"/>
      <stop offset="1" stop-color="#dabd89"/>
    </linearGradient>
    <linearGradient id="Degradado_sin_nombre_2" data-name="Degradado sin nombre 2" x1="65.2" y1="23.2" x2="77.9" y2="23.2" gradientTransform="translate(0 36) scale(1 -1)" gradientUnits="userSpaceOnUse">
      <stop offset="0" stop-color="#dec292"/>
      <stop offset="1" stop-color="#dcbf8d"/>
    </linearGradient>
    <linearGradient id="Degradado_sin_nombre_3" data-name="Degradado sin nombre 3" x1="2.1" y1="29.2" x2="43.9" y2="29.2" gradientTransform="translate(0 36) scale(1 -1)" gradientUnits="userSpaceOnUse">
      <stop offset="0" stop-color="#dabd89"/>
      <stop offset="1" stop-color="#cab081"/>
    </linearGradient>
    <linearGradient id="Degradado_sin_nombre_4" data-name="Degradado sin nombre 4" x1="7.4" y1="32.5" x2="43.9" y2="32.5" gradientTransform="translate(0 36) scale(1 -1)" gradientUnits="userSpaceOnUse">
      <stop offset="0" stop-color="#dabd89"/>
      <stop offset="1" stop-color="#cab081"/>
    </linearGradient>
  </defs>
  <!-- Generator: Adobe Illustrator 28.6.0, SVG Export Plug-In . SVG Version: 1.2.0 Build 709)  -->
  <g>
    <g id="Capa_1">
      <rect class="cls-6" x="1" y="8.6" width="77.7" height="20.6" rx="5" ry="5"/>
      <rect class="cls-4" x="2.1" y="8.6" width="12.7" height="8.4"/>
      <rect class="cls-3" x="65.2" y="8.6" width="12.7" height="8.4"/>
      <rect class="cls-5" x="2.1" y="4.9" width="41.8" height="3.6"/>
      <rect class="cls-2" x="7.4" y="1.6" width="36.5" height="3.6"/>
      <rect class="cls-1" x="45.9" y="6.9" width="29.9" height="1.6"/>
      <rect class="cls-1" x="4.1" y="28.4" width="71.8" height="1.6"/>
      <rect class="cls-1" y="3.5" width="2.1" height="23.2"/>
      <rect class="cls-1" x="77.9" y="10.2" width="2.1" height="16.5"/>
      <rect class="cls-1" x="43.9" y="3.3" width="2.1" height="5.3"/>
      <rect class="cls-1" x="2.1" y="26.7" width="2.1" height="1.6"/>
      <rect class="cls-1" x="75.9" y="26.7" width="2.1" height="1.6"/>
      <rect class="cls-1" x="75.9" y="8.6" width="2.1" height="1.6"/>
      <rect class="cls-1" y="3.5" width="7.4" height="1.6"/>
      <rect class="cls-1" x="9.4" width="32.4" height="1.6"/>
      <rect class="cls-1" x="41.8" y="1.6" width="2.1" height="1.6"/>
      <rect class="cls-1" x="7.4" y="1.6" width="2.1" height="1.6"/>
    </g>
  </g>
</svg>