<svg width="248" height="212" viewBox="0 0 248 212" fill="none" xmlns="http://www.w3.org/2000/svg">
<rect x="245" y="2.52527" width="207" height="242" rx="10" transform="rotate(90 245 2.52527)" fill="#E8D2A9"/>
<rect x="248" y="9" width="194" height="3" transform="rotate(90 248 9)" fill="#4F4B40"/>
<rect x="3" y="9" width="194" height="3" transform="rotate(90 3 9)" fill="#4F4B40"/>
<rect x="242" y="3" width="3" height="3" transform="rotate(90 242 3)" fill="#4F4B40"/>
<rect x="245" y="6" width="3" height="3" transform="rotate(90 245 6)" fill="#4F4B40"/>
<rect x="239" width="3" height="230" transform="rotate(90 239 0)" fill="#4F4B40"/>
<rect x="9.00226" y="6" width="3" height="3" transform="rotate(179.957 9.00226 6)" fill="#4F4B40"/>
<rect x="6.00452" y="9.0022" width="3" height="3" transform="rotate(179.957 6.00452 9.0022)" fill="#4F4B40"/>
<rect x="9" y="212.005" width="3" height="230" transform="rotate(-90 9 212.005)" fill="#4F4B40"/>
<rect x="238.998" y="206.005" width="3" height="3" transform="rotate(-0.0431444 238.998 206.005)" fill="#4F4B40"/>
<rect x="241.995" y="203.002" width="3" height="3" transform="rotate(-0.0431444 241.995 203.002)" fill="#4F4B40"/>
<rect x="6" y="203" width="3" height="3" transform="rotate(90 6 203)" fill="#4F4B40"/>
<rect x="9" y="206" width="3" height="3" transform="rotate(90 9 206)" fill="#4F4B40"/>
</svg>
